<?xml version="1.0" encoding="utf-8"?><!-- Uploaded to: SVG Repo, www.svgrepo.com, Generator: SVG Repo Mixer Tools -->
<svg width="800px" height="800px" viewBox="-24 0 304 304" xmlns="http://www.w3.org/2000/svg" preserveAspectRatio="xMinYMin meet"><path d="M92.54 238.81c-14.32-6.19-27.72-21.922-27.752-38.019-.039-17.55 11.083-32.45 24.916-42.242-1.663 6.283-2.57 12.03 1.55 17.65 3.83 5.225 10.538 7.764 16.872 6.386 14.8-3.24 15.479-19.51 6.705-28.989-8.675-9.387-17.067-19.99-13.765-33.603 1.653-6.824 5.843-13.216 11.151-17.785-4.08 10.722 7.514 21.296 15.153 26.563 13.251 9.138 27.79 16.044 39.974 26.756 12.816 11.258 22.28 26.48 20.369 44.135-2.071 19.136-17.277 32.445-34.333 39.164 36.042-7.955 73.283-35.928 74.046-75.9.632-32.885-21.927-58.193-49.872-72.682l-1.46-.797c.767 1.861 1.018 3.444.989 4.861.25-1.045.42-2.119.468-3.227a15.728 15.728 0 0 1-.512 3.9l.044-.673a16.383 16.383 0 0 1-2.069 4.931l.41-.441c-5.575 9.247-20.668 11.255-28.124 1.68-11.986-15.402.251-32.008 1.963-48.318 2.143-20.441-10.676-40.285-26.57-52.16 8.754 14.161-2.779 32.896-12.006 43.37C101.74 53.523 90.859 62 80.982 71.225c-10.61 9.908-20.81 20.345-29.531 31.974-17.442 23.276-28.12 52.55-20.273 81.588 7.842 29.018 32.978 47.49 61.363 54.022z" fill="#EE4323"/></svg>